<?xml version="1.0" encoding="UTF-8" standalone="no"?>
<!DOCTYPE svg PUBLIC "-//W3C//DTD SVG 1.1//EN" "http://www.w3.org/Graphics/SVG/1.1/DTD/svg11.dtd">
<svg width="100%" height="100%" viewBox="0 0 2223 918" version="1.1" xmlns="http://www.w3.org/2000/svg" xmlns:xlink="http://www.w3.org/1999/xlink" xml:space="preserve" xmlns:serif="http://www.serif.com/" style="fill-rule:evenodd;clip-rule:evenodd;stroke-linejoin:round;stroke-miterlimit:2;">
    <g transform="matrix(1,0,0,1,-134.343,-1127.86)">
        <g transform="matrix(3.40898,0,0,2.71654,-872.298,-5132.84)">
            <rect x="295.291" y="2304.66" width="651.893" height="337.92" style="fill:white;"/>
        </g>
        <g transform="matrix(4.16667,0,0,4.16667,0,0)">
            <g transform="matrix(-0.725303,0.68843,0.68843,0.725303,141.565,466.164)">
                <path d="M-136.038,-83.489L64.086,-83.489L-3.525,-19.316L-139.548,-25.561L-136.038,-83.489Z" style="fill:rgb(53,65,128);fill-rule:nonzero;"/>
            </g>
        </g>
        <g transform="matrix(4.16667,0,0,4.16667,0,0)">
            <g transform="matrix(1,0,0,1,37.9199,312.035)">
                <path d="M0,137.567L92.851,137.567L187.085,39.525L144.837,0.093L0,137.567ZM92.957,137.817L-0.627,137.817L-0.399,137.601L144.836,-0.25L144.922,-0.17L187.441,39.515L187.354,39.607L92.957,137.817Z" style="fill:white;fill-rule:nonzero;"/>
            </g>
        </g>
        <g transform="matrix(4.16667,0,0,4.16667,0,0)">
            <g transform="matrix(-0.725301,0.688432,0.688432,0.725301,549.97,394.987)">
                <path d="M42.341,-154.666L102.391,-154.666L100.413,-19.836L30.125,46.879L42.341,-154.666Z" style="fill:rgb(53,65,128);fill-rule:nonzero;"/>
            </g>
        </g>
        <g transform="matrix(4.16667,0,0,4.16667,0,0)">
            <g transform="matrix(1,0,0,1,463.538,312.035)">
                <path d="M0,137.567L96.538,137.567L-50.754,0.093L-94.131,41.265L0,137.567ZM97.173,137.817L-0.105,137.817L-0.143,137.779L-94.486,41.258L-94.395,41.171L-50.756,-0.25L-50.67,-0.17L97.173,137.817Z" style="fill:white;fill-rule:nonzero;"/>
            </g>
        </g>
        <g transform="matrix(4.16667,0,0,4.16667,0,0)">
            <g transform="matrix(-0.698998,-0.715124,-0.715124,0.698998,249.816,294.775)">
                <path d="M-125.32,-44.489L-20.21,-44.489L-23.387,57.304L-123.893,52.69L-125.32,-44.489Z" style="fill:rgb(30,44,111);fill-rule:nonzero;"/>
            </g>
        </g>
        <g transform="matrix(4.16667,0,0,4.16667,0,0)">
            <g transform="matrix(1,0,0,1,225.361,346.775)">
                <path d="M0,4.775L73.374,73.257L143.69,6.518L70.397,-68.466L0,4.775ZM73.376,73.601L73.29,73.521L-0.356,4.785L-0.269,4.693L70.395,-68.826L70.485,-68.733L144.046,6.525L143.954,6.612L73.376,73.601Z" style="fill:white;fill-rule:nonzero;"/>
            </g>
        </g>
        <g transform="matrix(4.16667,0,0,4.16667,0,0)">
            <g transform="matrix(-0.692967,0.720969,0.720969,0.692967,242.961,442.156)">
                <path d="M-53.001,-75.601L83.165,-75.601L-11.639,23.034L-54.477,25L-53.001,-75.601Z" style="fill:rgb(0,2,51);fill-rule:nonzero;"/>
            </g>
        </g>
        <g transform="matrix(4.16667,0,0,4.16667,0,0)">
            <g transform="matrix(1,0,0,1,131.117,351.63)">
                <path d="M0,97.972L136.466,97.972L167.437,68.576L94.071,0.1L0,97.972ZM136.565,98.222L-0.587,98.222L-0.384,98.01L94.061,-0.25L94.151,-0.166L167.802,68.574L136.565,98.222Z" style="fill:white;fill-rule:nonzero;"/>
            </g>
        </g>
        <g transform="matrix(4.16667,0,0,4.16667,0,0)">
            <g transform="matrix(0.731058,0.682315,0.682315,-0.731058,308.136,358.972)">
                <path d="M34.908,-51.178L78.176,-51.178L175.493,39.65L40.791,45.834L34.908,-51.178Z" style="fill:rgb(0,0,48);fill-rule:nonzero;"/>
            </g>
        </g>
        <g transform="matrix(4.16667,0,0,4.16667,0,0)">
            <g transform="matrix(1,0,0,1,330.416,353.371)">
                <path d="M0,96.231L132.772,96.231L38.811,0.101L-31.497,66.833L0,96.231ZM133.366,96.481L-0.098,96.481L-0.134,96.448L-31.862,66.835L-31.766,66.743L38.816,-0.25L38.903,-0.162L133.366,96.481Z" style="fill:white;fill-rule:nonzero;"/>
            </g>
        </g>
        <g transform="matrix(4.16667,0,0,4.16667,0,0)">
            <g transform="matrix(1,0,0,1,267.633,420.205)">
                <path d="M0,29.522L62.734,29.522L31.104,0L0,29.522Z" style="fill:rgb(0,2,51);fill-rule:nonzero;"/>
            </g>
        </g>
        <g transform="matrix(4.16667,0,0,4.16667,0,0)">
            <g transform="matrix(1,0,0,1,267.946,420.283)">
                <path d="M0,29.319L62.104,29.319L30.791,0.093L0,29.319ZM62.738,29.569L-0.627,29.569L30.789,-0.25L30.875,-0.17L62.738,29.569Z" style="fill:white;fill-rule:nonzero;"/>
            </g>
        </g>
        <g transform="matrix(4.16667,0,0,4.16667,0,0)">
            <g transform="matrix(1,0,0,1,0,100.133)">
                <rect x="136.188" y="360.663" width="4.502" height="20.431" style="fill:rgb(53,65,128);"/>
            </g>
        </g>
        <g transform="matrix(4.16667,0,0,4.16667,0,0)">
            <g transform="matrix(1,0,0,1,161.524,481.227)">
                <path d="M0,-20.431L6.118,-20.431L14.804,-6.234L14.862,-6.234L14.862,-20.431L19.363,-20.431L19.363,0L13.477,0L4.56,-14.544L4.502,-14.544L4.502,0L0,0L0,-20.431Z" style="fill:rgb(53,65,128);fill-rule:nonzero;"/>
            </g>
        </g>
        <g transform="matrix(4.16667,0,0,4.16667,0,0)">
            <g transform="matrix(1,0,0,1,206.281,464.952)">
                <path d="M0,12.12L2.337,12.12C3.376,12.12 4.343,12.015 5.237,11.803C6.132,11.591 6.906,11.24 7.561,10.749C8.214,10.259 8.729,9.614 9.104,8.815C9.479,8.017 9.667,7.041 9.667,5.887C9.667,4.887 9.479,4.016 9.104,3.275C8.729,2.535 8.224,1.924 7.589,1.442C6.955,0.962 6.208,0.601 5.353,0.36C4.497,0.12 3.597,0 2.655,0L0,0L0,12.12ZM-4.502,-4.155L2.25,-4.155C3.886,-4.155 5.439,-3.973 6.911,-3.608C8.383,-3.241 9.667,-2.651 10.764,-1.833C11.86,-1.015 12.73,0.048 13.375,1.356C14.02,2.665 14.342,4.252 14.342,6.117C14.342,7.772 14.029,9.229 13.404,10.489C12.779,11.75 11.937,12.808 10.879,13.664C9.821,14.52 8.599,15.169 7.214,15.611C5.829,16.055 4.376,16.275 2.857,16.275L-4.502,16.275L-4.502,-4.155Z" style="fill:rgb(53,65,128);fill-rule:nonzero;"/>
            </g>
        </g>
        <g transform="matrix(4.16667,0,0,4.16667,0,0)">
            <g transform="matrix(1,0,0,1,257.647,469.193)">
                <path d="M0,4.156C0,5.368 -0.183,6.484 -0.548,7.504C-0.914,8.523 -1.458,9.408 -2.179,10.158C-2.9,10.909 -3.8,11.496 -4.877,11.919C-5.955,12.342 -7.195,12.553 -8.6,12.553C-10.023,12.553 -11.274,12.342 -12.351,11.919C-13.429,11.496 -14.328,10.909 -15.049,10.158C-15.771,9.408 -16.314,8.523 -16.68,7.504C-17.045,6.484 -17.228,5.368 -17.228,4.156L-17.228,-8.397L-12.726,-8.397L-12.726,3.983C-12.726,4.618 -12.625,5.205 -12.423,5.743C-12.221,6.282 -11.938,6.749 -11.572,7.142C-11.207,7.537 -10.769,7.845 -10.259,8.066C-9.75,8.288 -9.196,8.398 -8.6,8.398C-8.003,8.398 -7.455,8.288 -6.955,8.066C-6.455,7.845 -6.022,7.537 -5.656,7.142C-5.291,6.749 -5.007,6.282 -4.805,5.743C-4.603,5.205 -4.502,4.618 -4.502,3.983L-4.502,-8.397L0,-8.397L0,4.156Z" style="fill:rgb(53,65,128);fill-rule:nonzero;"/>
            </g>
        </g>
        <g transform="matrix(4.16667,0,0,4.16667,0,0)">
            <g transform="matrix(1,0,0,1,288.639,476.234)">
                <path d="M0,-10.446C-0.366,-10.908 -0.861,-11.249 -1.486,-11.47C-2.111,-11.691 -2.703,-11.802 -3.261,-11.802C-3.588,-11.802 -3.924,-11.763 -4.271,-11.687C-4.617,-11.61 -4.944,-11.49 -5.252,-11.326C-5.56,-11.163 -5.81,-10.946 -6.002,-10.677C-6.195,-10.407 -6.291,-10.081 -6.291,-9.696C-6.291,-9.08 -6.06,-8.609 -5.598,-8.282C-5.137,-7.955 -4.555,-7.675 -3.853,-7.445C-3.15,-7.215 -2.395,-6.983 -1.587,-6.753C-0.779,-6.521 -0.024,-6.194 0.678,-5.771C1.38,-5.348 1.962,-4.78 2.424,-4.069C2.886,-3.357 3.117,-2.404 3.117,-1.212C3.117,-0.077 2.905,0.914 2.482,1.76C2.059,2.608 1.486,3.309 0.765,3.867C0.043,4.425 -0.793,4.839 -1.746,5.108C-2.698,5.377 -3.704,5.512 -4.761,5.512C-6.089,5.512 -7.32,5.31 -8.455,4.906C-9.59,4.502 -10.648,3.848 -11.629,2.944L-8.426,-0.577C-7.964,0.039 -7.383,0.515 -6.681,0.852C-5.979,1.189 -5.252,1.357 -4.501,1.357C-4.137,1.357 -3.766,1.313 -3.391,1.227C-3.016,1.14 -2.679,1.01 -2.381,0.837C-2.083,0.664 -1.842,0.443 -1.659,0.173C-1.477,-0.095 -1.385,-0.414 -1.385,-0.779C-1.385,-1.394 -1.621,-1.88 -2.092,-2.236C-2.564,-2.592 -3.155,-2.895 -3.867,-3.145C-4.579,-3.395 -5.349,-3.645 -6.175,-3.895C-7.003,-4.145 -7.772,-4.482 -8.484,-4.906C-9.196,-5.329 -9.788,-5.886 -10.259,-6.579C-10.73,-7.272 -10.966,-8.185 -10.966,-9.321C-10.966,-10.418 -10.75,-11.379 -10.316,-12.207C-9.884,-13.033 -9.307,-13.726 -8.585,-14.284C-7.864,-14.842 -7.032,-15.26 -6.089,-15.54C-5.146,-15.818 -4.175,-15.958 -3.174,-15.958C-2.02,-15.958 -0.904,-15.795 0.173,-15.467C1.25,-15.14 2.222,-14.592 3.088,-13.822L0,-10.446Z" style="fill:rgb(53,65,128);fill-rule:nonzero;"/>
            </g>
        </g>
        <g transform="matrix(4.16667,0,0,4.16667,0,0)">
            <g transform="matrix(1,0,0,1,315.794,477.245)">
                <path d="M0,-12.466L-5.829,-12.466L-5.829,-16.448L10.331,-16.448L10.331,-12.466L4.502,-12.466L4.502,3.982L0,3.982L0,-12.466Z" style="fill:rgb(53,65,128);fill-rule:nonzero;"/>
            </g>
        </g>
        <g transform="matrix(4.16667,0,0,4.16667,0,0)">
            <g transform="matrix(1,0,0,1,349.643,472.772)">
                <path d="M0,-3.521L2.655,-3.521C3.06,-3.521 3.487,-3.536 3.939,-3.565C4.392,-3.593 4.8,-3.68 5.166,-3.824C5.531,-3.968 5.834,-4.195 6.075,-4.502C6.315,-4.81 6.436,-5.243 6.436,-5.801C6.436,-6.321 6.329,-6.734 6.118,-7.042C5.906,-7.349 5.637,-7.585 5.311,-7.749C4.982,-7.912 4.607,-8.023 4.185,-8.081C3.762,-8.138 3.348,-8.167 2.943,-8.167L0,-8.167L0,-3.521ZM-4.501,-11.976L3.405,-11.976C4.444,-11.976 5.43,-11.875 6.363,-11.673C7.296,-11.471 8.113,-11.134 8.816,-10.664C9.519,-10.192 10.076,-9.557 10.49,-8.758C10.903,-7.96 11.11,-6.964 11.11,-5.772C11.11,-4.33 10.735,-3.103 9.985,-2.092C9.234,-1.083 8.138,-0.443 6.695,-0.173L11.89,8.455L6.493,8.455L2.223,0.288L0,0.288L0,8.455L-4.501,8.455L-4.501,-11.976Z" style="fill:rgb(53,65,128);fill-rule:nonzero;"/>
            </g>
        </g>
        <g transform="matrix(4.16667,0,0,4.16667,0,0)">
            <g transform="matrix(1,0,0,1,0,100.133)">
                <rect x="380.52" y="360.663" width="4.502" height="20.431" style="fill:rgb(53,65,128);"/>
            </g>
        </g>
        <g transform="matrix(4.16667,0,0,4.16667,0,0)">
            <g transform="matrix(1,0,0,1,414.311,475.283)">
                <path d="M0,-8.542L-2.482,-2.193L2.511,-2.193L0,-8.542ZM-1.731,-14.486L1.991,-14.486L10.879,5.944L5.8,5.944L4.04,1.616L-3.896,1.616L-5.599,5.944L-10.563,5.944L-1.731,-14.486Z" style="fill:rgb(53,65,128);fill-rule:nonzero;"/>
            </g>
        </g>
        <g transform="matrix(4.16667,0,0,4.16667,0,0)">
            <g transform="matrix(1,0,0,1,444.15,481.227)">
                <path d="M0,-20.431L4.502,-20.431L4.502,-4.156L12.842,-4.156L12.842,0L0,0L0,-20.431Z" style="fill:rgb(53,65,128);fill-rule:nonzero;"/>
            </g>
        </g>
        <g transform="matrix(4.16667,0,0,4.16667,0,0)">
            <g transform="matrix(1,0,0,1,118.192,402.642)">
                <path d="M0,16.678L12.033,15.764C12.757,18.919 14.226,21.236 16.44,22.716C18.655,24.196 21.642,24.935 25.402,24.935C29.385,24.935 32.386,24.277 34.406,22.96C36.425,21.644 37.435,20.105 37.435,18.342C37.435,17.211 37.01,16.248 36.161,15.453C35.311,14.659 33.828,13.969 31.711,13.381C30.263,12.99 26.962,12.294 21.81,11.292C15.18,10.009 10.529,8.432 7.854,6.561C4.094,3.928 2.214,0.719 2.214,-3.067C2.214,-5.504 3.098,-7.783 4.867,-9.904C6.636,-12.026 9.185,-13.641 12.513,-14.751C15.841,-15.86 19.859,-16.416 24.567,-16.416C32.254,-16.416 38.041,-15.098 41.927,-12.467C45.813,-9.834 47.853,-6.32 48.047,-1.925L35.681,-1.501C35.151,-3.959 34.016,-5.727 32.275,-6.804C30.534,-7.881 27.923,-8.42 24.441,-8.42C20.849,-8.42 18.035,-7.843 16.002,-6.69C14.692,-5.95 14.038,-4.96 14.038,-3.719C14.038,-2.589 14.65,-1.62 15.876,-0.815C17.436,0.207 21.225,1.274 27.241,2.383C33.257,3.492 37.707,4.641 40.59,5.826C43.473,7.012 45.729,8.633 47.358,10.689C48.988,12.745 49.802,15.285 49.802,18.31C49.802,21.051 48.827,23.618 46.877,26.012C44.928,28.406 42.17,30.184 38.605,31.348C35.04,32.512 30.597,33.094 25.277,33.094C17.533,33.094 11.587,31.697 7.437,28.901C3.286,26.105 0.808,22.03 0,16.678" style="fill:white;fill-rule:nonzero;"/>
            </g>
        </g>
        <g transform="matrix(4.16667,0,0,4.16667,0,0)">
            <g transform="matrix(1,0,0,1,178.314,435.702)">
                <path d="M0,-48.66L12.367,-48.66L12.367,-22.747C12.367,-18.635 12.52,-15.97 12.827,-14.751C13.355,-12.793 14.616,-11.221 16.608,-10.035C18.599,-8.848 21.322,-8.257 24.776,-8.257C28.286,-8.257 30.932,-8.816 32.714,-9.937C34.497,-11.057 35.569,-12.434 35.931,-14.066C36.293,-15.698 36.475,-18.406 36.475,-22.192L36.475,-48.66L48.841,-48.66L48.841,-23.53C48.841,-17.786 48.507,-13.728 47.839,-11.357C47.17,-8.985 45.938,-6.983 44.141,-5.351C42.345,-3.72 39.942,-2.42 36.934,-1.452C33.926,-0.484 29.999,0 25.152,0C19.303,0 14.867,-0.527 11.845,-1.582C8.822,-2.638 6.435,-4.008 4.68,-5.694C2.925,-7.381 1.769,-9.148 1.212,-10.998C0.404,-13.739 0,-17.786 0,-23.139L0,-48.66Z" style="fill:white;fill-rule:nonzero;"/>
            </g>
        </g>
        <g transform="matrix(4.16667,0,0,4.16667,0,0)">
            <g transform="matrix(1,0,0,1,245.158,387.042)">
                <path d="M0,47.845L0,0L18.509,0L29.623,32.636L40.611,0L59.161,0L59.161,47.845L47.671,47.845L47.671,10.183L35.514,47.845L23.606,47.845L11.49,10.183L11.49,47.845L0,47.845Z" style="fill:white;fill-rule:nonzero;"/>
            </g>
        </g>
        <g transform="matrix(4.16667,0,0,4.16667,0,0)">
            <g transform="matrix(1,0,0,1,323.281,387.042)">
                <path d="M0,47.845L0,0L18.509,0L29.622,32.636L40.61,0L59.161,0L59.161,47.845L47.671,47.845L47.671,10.183L35.513,47.845L23.605,47.845L11.489,10.183L11.489,47.845L0,47.845Z" style="fill:white;fill-rule:nonzero;"/>
            </g>
        </g>
        <g transform="matrix(4.16667,0,0,4.16667,0,0)">
            <g transform="matrix(1,0,0,1,0,-19.961)">
                <rect x="399.484" y="407.003" width="12.366" height="47.845" style="fill:white;"/>
            </g>
        </g>
        <g transform="matrix(4.16667,0,0,4.16667,0,0)">
            <g transform="matrix(1,0,0,1,439.132,387.042)">
                <path d="M0,47.845L0,8.094L-18.175,8.094L-18.175,0L30.5,0L30.5,8.094L12.367,8.094L12.367,47.845L0,47.845Z" style="fill:white;fill-rule:nonzero;"/>
            </g>
        </g>
    </g>
</svg>
